<svg xmlns="http://www.w3.org/2000/svg" width="166" height="65" viewBox="0 0 166 65" fill="none"><path d="M162.833 24.5732L162.827 24.5771C164.428 26.1196 165.259 27.9889 165.305 30.1924C165.362 32.396 164.606 34.3051 163.05 35.9258L155.278 44.0146L150.466 49.0186L146.323 53.334L138.216 45.5293L140.339 47.5908L138.932 49.0156L134.789 53.3301L125.265 44.1602C123.667 42.6177 122.84 40.7478 122.787 38.5479C122.741 36.3445 123.49 34.436 125.048 32.8154L132.676 24.8789L132.75 24.8047L132.822 24.7295L137.633 19.7217L141.781 15.4072L147.798 21.1445L149.167 19.7217L153.314 15.4072L162.833 24.5732ZM150.676 21.165L145.865 26.1729L145.793 26.2471L145.719 26.3223L138.088 34.2617C136.924 35.4737 136.373 36.8606 136.412 38.499C136.451 40.1408 137.055 41.4983 138.251 42.6533L146.269 50.373L148.968 47.5654L153.779 42.5605L161.552 34.4717L161.559 34.4678C162.727 33.2558 163.275 31.8696 163.232 30.2383C163.196 28.5929 162.592 27.2321 161.392 26.0771L153.375 18.3574L150.676 21.165ZM134.848 35.4658C134.707 35.8181 134.594 36.1847 134.509 36.5723C134.594 36.1932 134.707 35.8243 134.848 35.4658ZM134.96 35.2002C134.921 35.2878 134.884 35.3764 134.848 35.4658C134.883 35.3764 134.922 35.2883 134.96 35.2002Z" fill="#0038A8"></path><path d="M162.835 24.5734L153.315 15.4072L149.168 19.722L144.356 24.7298L144.285 24.8044L144.211 24.8791L136.58 32.8191C135.025 34.4398 134.272 36.3484 134.322 38.5519C134.375 40.752 135.202 42.6215 136.8 44.164L146.324 53.3337L150.467 49.019L155.279 44.0147L163.052 35.9254C164.607 34.3047 165.363 32.3961 165.306 30.1926C165.26 27.989 164.429 26.1195 162.828 24.577L162.835 24.5734ZM161.553 34.4718L153.78 42.561L148.969 47.5653L146.27 50.3731L138.252 42.6535C137.056 41.4984 136.452 40.1407 136.413 38.4986C136.374 36.8602 136.924 35.474 138.089 34.2621L145.72 26.3221L145.794 26.2474L145.865 26.1728L150.677 21.165L153.376 18.3572L161.393 26.0768C162.594 27.2319 163.197 28.5932 163.233 30.2388C163.275 31.8701 162.728 33.2562 161.56 34.4682L161.553 34.4718Z" fill="#1E4CFF"></path><path d="M26.5809 25.0864C26.5809 22.3468 24.952 20.2737 19.7691 20.2737C13.5496 20.2737 11.2543 22.1987 10.8841 27.0855H3.33187C3.70207 19.8294 8.36669 14.1282 19.7691 14.1282C28.1358 14.1282 34.3553 17.312 34.3553 27.3816V45.3737C34.3553 48.0392 34.9476 49.446 37.9833 49.1498V52.8519C36.2063 53.5183 34.9476 53.6664 33.4668 53.6664C29.3204 53.6664 27.3954 52.1855 26.6549 48.4835H26.5069C24.1375 51.8153 19.8431 54.1106 13.9938 54.1106C6.29353 54.1106 1.55487 49.6681 1.55487 43.3006C1.55487 35.0079 7.70031 32.4165 17.1776 30.5654C23.0269 29.4548 26.5809 28.7144 26.5809 25.0864ZM15.6968 47.9652C22.1384 47.9652 26.5809 44.7814 26.5809 38.636V32.9348C25.3222 33.8233 22.2865 34.7118 18.6585 35.4522C12.2168 36.859 9.40327 38.71 9.40327 42.5601C9.40327 46.0401 11.4764 47.9652 15.6968 47.9652ZM54.6906 21.5324H47.5826V42.0419C47.5826 46.3363 49.6558 46.8546 54.6906 46.5584V52.926C53.1358 53.2962 51.4328 53.5183 49.3596 53.5183C43.1402 53.5183 39.7342 50.7047 39.7342 42.7082V21.5324H34.2552V15.1648H39.7342V3.24412H47.5826V15.1648H54.6906V21.5324ZM71.5299 47.7431C77.9715 47.7431 80.5629 43.7448 81.2293 41.4495H89.0037C87.0786 48.6316 81.4514 54.1106 71.752 54.1106C59.9794 54.1106 52.7974 45.9661 52.7974 34.1194C52.7974 21.8285 59.9794 14.1282 71.3818 14.1282C83.5986 14.1282 89.596 22.643 89.596 36.1185H60.5717C60.5717 42.4861 64.644 47.7431 71.5299 47.7431ZM71.3818 20.2737C65.0883 20.2737 60.5717 24.494 60.5717 30.3433H81.8216C81.8216 24.494 77.6753 20.2737 71.3818 20.2737ZM85.7215 15.1648H94.5325L103.121 28.4923H103.269L111.858 15.1648H120.669L107.934 33.6752L122.076 53H113.043L103.269 38.784H103.121L93.4959 53H84.3888L98.5307 33.6752L85.7215 15.1648Z" fill="#00122B"></path><path d="M1.42685 58.4666H2.04986V63.416H1.42685V58.4666ZM5.06476 63.416V58.4666H5.82621L8.29745 62.5438H8.31129V58.4666H8.9343V63.416H8.17285L5.70161 59.3527H5.68776V63.416H5.06476ZM11.941 63.416V58.4666H12.7025L15.1737 62.5438H15.1876V58.4666H15.8106V63.416H15.0491L12.5779 59.3527H12.564V63.416H11.941ZM21.087 63.5129C19.6333 63.5129 18.6642 62.4261 18.6642 60.9379C18.6642 59.4496 19.6333 58.3697 21.087 58.3697C22.5407 58.3697 23.5098 59.4496 23.5098 60.9379C23.5098 62.4261 22.5407 63.5129 21.087 63.5129ZM21.087 62.9591C22.333 62.9591 22.8868 62.0039 22.8868 60.9379C22.8868 59.8718 22.333 58.9235 21.087 58.9235C19.841 58.9235 19.2872 59.8718 19.2872 60.9379C19.2872 62.0039 19.841 62.9591 21.087 62.9591ZM25.6911 58.4666H26.3487L27.7608 62.793H27.7678L29.1799 58.4666H29.8375L28.107 63.416H27.4217L25.6911 58.4666ZM34.8273 62.1769H32.6468L32.2107 63.416H31.5669L33.3944 58.4666H34.0866L35.9071 63.416H35.2634L34.8273 62.1769ZM32.8544 61.6232H34.6265L33.7474 59.0412H33.7336L32.8544 61.6232ZM39.2341 63.416V59.0204H37.5866V58.4666H41.5046V59.0204H39.8571V63.416H39.2341ZM44.2136 58.4666H44.8366V63.416H44.2136V58.4666ZM47.457 58.4666H48.1146L49.5267 62.793H49.5336L50.9458 58.4666H51.6034L49.8728 63.416H49.1875L47.457 58.4666ZM54.837 60.5779H57.3775V61.1317H54.837V62.8622H57.7928V63.416H54.214V58.4666H57.7098V59.0204H54.837V60.5779ZM64.0593 63.416V58.4666H66.0252C66.932 58.4666 67.6312 58.8681 67.6312 59.9064C67.6312 60.9448 66.932 61.3463 66.0252 61.3463H64.6823V63.416H64.0593ZM64.6823 59.0204V60.7925H66.0944C66.7105 60.7925 67.0082 60.5087 67.0082 59.9064C67.0082 59.3042 66.7105 59.0204 66.0944 59.0204H64.6823ZM74.0983 61.7685C74.0983 62.7792 73.5238 63.5129 72.2016 63.5129C70.8795 63.5129 70.3049 62.7792 70.3049 61.7685V58.4666H70.928V61.7685C70.928 62.5715 71.3433 62.9591 72.2016 62.9591C73.06 62.9591 73.4753 62.5715 73.4753 61.7685V58.4666H74.0983V61.7685ZM80.6343 59.7126C80.6343 60.3218 80.2744 60.5987 79.866 60.7371V60.751C80.3851 60.8409 80.8282 61.2355 80.8282 61.9762C80.8282 62.8899 80.1775 63.416 79.153 63.416H77.0209V58.4666H79.0145C80.0252 58.4666 80.6343 58.9442 80.6343 59.7126ZM77.6439 60.5364H79.1114C79.8175 60.5364 80.0113 60.2318 80.0113 59.7818C80.0113 59.3319 79.7483 59.0204 79.1807 59.0204H77.6439V60.5364ZM77.6439 61.0901V62.8622H79.2153C80.0113 62.8622 80.2052 62.44 80.2052 61.9762C80.2052 61.4432 79.8729 61.0901 79.3537 61.0901H77.6439ZM83.5524 58.4666H84.1754V62.8622H86.7713V63.416H83.5524V58.4666ZM89.4759 58.4666H90.0989V63.416H89.4759V58.4666ZM94.8928 60.5294C96.0073 60.8063 96.7341 60.9932 96.7341 62.1216C96.7341 62.8415 96.2011 63.5129 94.9482 63.5129C93.7783 63.5129 92.8715 62.8899 92.8023 61.7547H93.4253C93.4945 62.4331 93.9098 62.9591 94.9482 62.9591C95.8065 62.9591 96.1111 62.5646 96.1111 62.1216C96.1111 61.4432 95.7442 61.3186 94.6367 61.0625C93.896 60.8894 93.01 60.6333 93.01 59.6711C93.01 58.8889 93.6122 58.3697 94.7059 58.3697C95.7581 58.3697 96.4918 58.9096 96.5749 59.9341H95.9519C95.8619 59.2696 95.4881 58.9235 94.7059 58.9235C94.0068 58.9235 93.633 59.1934 93.633 59.6019C93.633 60.2595 94.166 60.3495 94.8928 60.5294ZM99.5236 58.4666H100.147V60.571H102.791V58.4666H103.414V63.416H102.791V61.1248H100.147V63.416H99.5236V58.4666ZM106.434 58.4666H107.057V63.416H106.434V58.4666ZM110.072 63.416V58.4666H110.833L113.305 62.5438H113.318V58.4666H113.941V63.416H113.18L110.709 59.3527H110.695V63.416H110.072ZM120.554 59.9618C120.409 59.2557 119.841 58.9235 119.093 58.9235C117.917 58.9235 117.418 60.0103 117.418 60.9379C117.418 61.8724 117.778 62.9591 119.024 62.9591C119.91 62.9591 120.637 62.3223 120.637 61.3947H119.024V60.8409H121.26V63.416H120.845L120.637 62.7169H120.623C120.249 63.236 119.786 63.5129 119.024 63.5129C117.584 63.5129 116.795 62.4331 116.795 60.9379C116.795 59.4496 117.723 58.3697 119.093 58.3697C120.346 58.3697 121.004 59.0204 121.177 59.9618H120.554Z" fill="#0038A8"></path></svg>